# xmcd CD database file
#
# Track frame offsets:
#	150
#	18427
#	44557
#	61812
#	78447
#	96818
#	116183
#	145283
#	164586
#	188002
#	203130
#	227835
#	247411
#	264521
#
# Disc length: 3846 seconds
#
# Revision: 0
# Processed by: cddbd v1.5.2PL0 Copyright (c) Steve Scherf et al.
# Submitted via: CDex 1.51
#
DISCID=cb0f040e
DTITLE=Various Artist - La Fée Maraboutée
DYEAR=1900
DGENRE=Jazz
TTITLE0=01-Oscar Brown Jr - Brother where are you (Matthew Herbert Remix)
TTITLE1=02-Cibelle - I'll be
TTITLE2=03-Finley Quaye - Even after all
TTITLE3=04-Thievery Corporation - Une simple histoire (a simple story)
TTITLE4=05-Nitin Sawhney - Broken skin
TTITLE5=06-Terry Callier - Speak your peace
TTITLE6=07-Soel - My singing soul
TTITLE7=08-Koop - Modal mile
TTITLE8=09-Nina Simone - Feeling good (Joe Claussell Remix)
TTITLE9=10-Alpha - Elvis
TTITLE10=11-Van Orly - Somebody hold me
TTITLE11=12-Donna Regina - Why
TTITLE12=13-Helena - Morrer Nos Seus Braços (Remix by De-Phazz)
TTITLE13=14-Victor Davies - Brother
EXTD=
EXTT0=
EXTT1=
EXTT2=
EXTT3=
EXTT4=
EXTT5=
EXTT6=
EXTT7=
EXTT8=
EXTT9=
EXTT10=
EXTT11=
EXTT12=
EXTT13=
PLAYORDER=
